PathFileType        4      (X/Y/Z)      C:\Users\ibrah\OneDrive - KTH\Model Validation - Orthoload\rmr-solver-1.0 - original\rmr-solver-1.0\ExperimentalData\S8R\trc\transformed_MSffkg1.trc         
DataRate	CameraRate	NumFrames	NumMarkers	Units	OrigDataRate	OrigDataStartFrame	OrigNumFrames
50.0	50.0	13	27	mm	50.0	496	566
Frame#	Time	IJ			PX			C7			T8			SC			AA			TS			AI			PC			ACv			ACd			GH			EM			EL			EM2			EL2			US			RS			US2			RS2			MCP2			MCP5			SCREWAA			SCREWTS			SCREWAI			ACvloc			ACdloc			
		X1	Y1	Z1	X2	Y2	Z2	X3	Y3	Z3	X4	Y4	Z4	X5	Y5	Z5	X6	Y6	Z6	X7	Y7	Z7	X8	Y8	Z8	X9	Y9	Z9	X10	Y10	Z10	X11	Y11	Z11	X12	Y12	Z12	X13	Y13	Z13	X14	Y14	Z14	X15	Y15	Z15	X16	Y16	Z16	X17	Y17	Z17	X18	Y18	Z18	X19	Y19	Z19	X20	Y20	Z20	X21	Y21	Z21	X22	Y22	Z22	X23	Y23	Z23	X24	Y24	Z24	X25	Y25	Z25	X26	Y26	Z26	X27	Y27	Z27	
496	9.9	-68.74899286025885	32.43854275089199	-3.407412280380758	18.81059663716512	-87.8029051055163	8.593711167246543	-216.7436615083217	81.25721415074428	-10.13581706520526	-228.6092168229522	-129.5517575945211	1.821440890193776	-78.14092437023517	41.07328224550383	19.92723420616247	-191.2431050691843	52.77962694991421	159.8037536563252	-224.4268665730151	-21.31332513208933	102.3376826229052	-112.0201436791319	-134.8420951058081	148.4454560584062	-145.6097794311179	75.39330251107316	93.06580193942682	-199.6122932716707	78.38654829120077	124.2603116094202	-199.6122932716707	78.38654829120077	124.2603116094202	-135.0344859250553	27.75787471271925	176.2184059527521	92.06507108023771	186.8705291774471	264.2816412905191	39.98190026109584	219.1068573541003	302.0911905374513													123.3662795619878	418.5310074630743	274.4095442821405	156.0272526777364	409.3846804984793	322.0698903964496																						
497	9.92	-69.07727191732289	32.07437373154736	-3.066619860320536	17.75585342219252	-88.76951115634924	8.213906457216027	-216.7822785842162	81.86078543267273	-9.112224823702704	-229.9513680140289	-128.9186339772225	2.15566424061625	-78.33279432868929	40.6876233218971	20.33030300242431	-190.957680718391	52.54118710126904	160.8223470934757	-225.2591183307846	-20.80078138074465	103.0393602746366	-114.256943470933	-136.0608893169507	148.2748900642118	-145.1845346899733	74.90505334232937	94.09551671906833	-199.07048617875	78.44769880920502	125.4348956948005	-199.07048617875	78.44769880920502	125.4348956948005	-134.7960120416278	26.752522964128	176.5843355196717	96.09448858732385	180.1888493201002	265.1135140087756	44.8741297903455	213.1122800547232	303.5344951140177													134.034253837679	409.9441726156667	276.2951347332073	166.5248472094011	399.6078437169464	323.8404498715784																						
498	9.94	-69.48918169114232	31.68551452415636	-2.732421057917064	16.61699918546441	-89.74771205069256	7.836616677742786	-216.8977727918409	82.4298332508831	-8.070862837396337	-231.3629086718506	-128.3050721430889	2.565039889837996	-78.60305665484717	40.28137907926737	20.7263550777241	-190.7249123251048	52.1576510911117	161.9026966580576	-226.2056324754987	-20.32388918957073	103.7479789035096	-116.7815747635765	-137.4440119856756	148.0239228258396	-144.7811392399365	74.26946854497416	95.20911083763691	-198.5403512963183	78.3948976147594	126.6926975999414	-198.5403512963183	78.3948976147594	126.6926975999414	-134.6493953147412	25.5579168748232	176.9503201357511	100.162206975572	172.5954150725825	266.1194685639254	49.88878418449637	206.1991159043887	305.2157355906417													144.8969508991471	400.1585321109679	278.2880384701696	177.1790400205795	388.625649829858	325.7140228840286																						
499	9.96	-69.9705800577003	31.27846133469649	-2.406075318310356	15.40709480691166	-90.73038989119586	7.474771766758561	-217.0752686470803	82.97054958289527	-7.028204542743592	-232.8299144345296	-127.7042121383148	3.044063478068644	-78.9394358255653	39.86231920214254	21.11287052057624	-190.5409732347072	51.6252931245902	163.0403470239685	-227.2577362091927	-19.87897135053394	104.4573502937869	-119.5964259258506	-138.9830455614702	147.6834658686763	-144.39261218008	73.48269327273105	96.40460596957391	-198.0145078892837	78.22389189813005	128.0305804411432	-198.0145078892837	78.22389189813005	128.0305804411432	-134.6123115944534	24.18016940090984	177.3254710544384	104.209875031429	164.0550776560326	267.2836362343509	54.9721455870277	198.3287793487035	307.1162495490898													155.8771850092425	389.1578027719144	280.3900783970008	187.9063028642278	376.4230973697162	327.6949269514081																						
500	9.98	-70.50355920524004	30.85865208621671	-2.086644302366	14.14231987473518	-91.71244427051973	7.142189231671168	-217.296043516547	83.48928635894511	-5.998682867106987	-234.3359854028741	-127.1094132468504	3.585952441362644	-79.3259606092273	39.43692790999039	21.48963262872823	-190.39971512447	50.94353603662078	164.231641958098	-228.4027441268067	-19.4614540926314	105.1635417503527	-122.6955181879427	-140.6647495609097	147.2473976599663	-144.0107750637239	72.54414904061217	97.68013576890296	-197.4843940023842	77.9327135537139	129.44591814007	-197.4843940023842	77.9327135537139	129.44591814007	-134.6997588189317	22.62977888696542	177.7216141285267	108.1746597001128	154.5511338856416	268.5845140387489	60.06470727385672	189.4813777198409	309.2102360539089													166.8951592083627	376.9464315348276	282.6037164972531	198.6204263488524	363.0042138492908	329.7875144170443																						
501	10.0	-71.0672519805153	30.42991942529855	-1.771121429660778	12.84152015631611	-92.69107586974071	6.852992822266014	-217.5384732131582	83.99158121739679	-4.994267099818019	-235.8625828021115	-126.5152289423879	4.182820999426961	-79.74372754798156	39.009796402116	21.85863767076687	-190.2932563894541	50.11500106311298	165.473489334634	-229.6244747340654	-19.06624907200328	105.8646887099306	-126.0643423344898	-142.471389986195	146.7127731653973	-143.6269009801489	71.45666881923441	99.03369063688675	-196.9410049733559	77.52172185328527	130.936278357486	-196.9410049733559	77.52172185328527	130.936278357486	-134.9229567289589	20.92096287544159	178.1520419923076	111.9909534713729	144.0873571372151	269.9961096680034	65.10239740705026	179.6575699311833	311.4659911137159													177.8697350153424	363.5485942378895	284.9315694663597	209.2339026698246	348.3913029913733	331.9954969160738																						
502	10.02	-71.63880115829231	29.99411831944418	-1.454744247033275	11.52560808859624	-93.66586576821507	6.620913658482699	-217.7791405208522	84.48132013259374	-4.024214143855867	-237.3894926830359	-125.9182346721954	4.825847125461712	-80.17182232885126	38.58320243205761	22.22381614779552	-190.2126039498406	49.14548944731447	166.7630016806299	-230.9039030642612	-18.68808771389121	106.5606150133977	-129.6800877897576	-144.3812444744648	146.0798221740627	-143.2323308464595	70.22653488270252	100.4627713475127	-196.3755984188483	76.99361884015313	132.4989920413151	-196.3755984188483	76.99361884015313	132.4989920413151	-135.2882944806648	19.07081728905387	178.630026704249	115.5924057320596	132.6891855276811	271.4893455247587	70.0181612619798	168.8795932974605	313.84744662154													188.7199203123695	349.0063391450083	287.3757704609222	219.6594785878456	332.6234632778725	334.3212083920345																						
503	10.04	-72.19442265540579	29.55096765820632	-1.131467822186789	10.21685222048638	-94.6386389417998	6.458509317717469	-217.9940250271189	84.96012032318721	-3.094996792876907	-238.8953933408215	-125.3176259196444	5.505425000285766	-80.58833067523447	38.15691936613273	22.59058627017234	-190.1482463740603	48.04389080448703	168.097057444688	-232.2199001495961	-18.32178053813759	107.2523057044091	-133.5122628338008	-146.369261409327	145.3517415950418	-142.8189967114433	68.86340692782017	101.963993310677	-195.7802955972566	76.35343288235012	134.1306613775847	-195.7802955972566	76.35343288235012	134.1306613775847	-135.7964174015208	17.09835951912574	179.1672343738013	118.9141722751102	120.403939083992	273.0336177305278	74.74384074010918	157.1913559622576	316.3159031236129													199.3664729527652	333.3770417563864	289.9372386069226	229.8117877643078	315.7545202085589	336.7648711124066																						
504	10.06	-72.71048885640337	29.09812452676575	-0.794563478783193	8.938097611054102	-95.61311983554519	6.376352943771592	-218.1596883383901	85.4269944719798	-2.21040369144878	-240.3584965043939	-124.7155256361882	6.211302022182496	-80.97136666067829	37.72827622146607	22.96527404394735	-190.0906657066425	46.82200991613256	169.4718372659069	-233.5500107977205	-17.96238632688785	107.9412908658203	-137.5236846760996	-148.4078461762171	144.5343028954637	-142.3798061619202	67.38012833564865	103.5326903557436	-195.1485237343646	75.60845987501644	135.8266661554825	-195.1485237343646	75.60845987501644	135.8266661554825	-136.4415527011526	15.02352314162988	179.7722017008878	121.8952456615482	107.2999914647508	274.5983885038618	79.2122583923638	144.6575428411926	318.8318298329152													209.733502059627	316.7303795731349	292.6149304580896	239.6089613543595	297.8505472803214	339.3239328549532																						
505	10.08	-73.16456027832149	28.6314871264738	-0.437295066163615	7.711961218378923	-96.59440697276264	6.38225750715396	-218.2543725394967	85.87832916129489	-1.371796887478252	-241.7572288613839	-124.1169677222152	6.932705430575918	-81.30004944802923	37.29246702325324	23.35444640589064	-190.0307306417735	45.49430177376253	170.8823930618369	-234.8712261016829	-17.60528988190687	108.6290069101116	-141.6717979322677	-150.4677438247482	143.6353099705398	-141.9088615344658	65.7924009299285	105.1625689925761	-194.4752649725468	74.76814699648541	137.5807306369645	-194.4752649725468	74.76814699648541	137.5807306369645	-137.2111712741845	12.86617595505732	180.4490359112657	124.4807075492095	93.46488723894711	276.1546845882939	83.35938640844853	131.361741465815	321.3566004003744													219.7499461866125	299.1450572169919	295.4051507901589	248.9741152880508	278.9871662404773	341.992539341873																						
506	10.1	-73.53630204469148	28.14569973125007	-0.05361585873613814	6.560045017016771	-97.58831052900148	6.480607087645175	-218.2589409292044	86.30817885224094	-0.5785031582276151	-243.0709195681187	-123.5295547239683	7.658468711547133	-81.55536846283147	36.84308425278363	23.76421311963139	-189.9599523840306	44.07750531239586	172.3223054001201	-236.1607150405558	-17.2462006413218	109.3162031141138	-145.9102606988161	-152.5189844362685	142.6639540114407	-141.4015097266291	64.11832374430044	106.8454609973451	-193.7571021800037	73.84390200982553	139.3846086875317	-193.7571021800037	73.84390200982553	139.3846086875317	-138.0860666253439	10.64523110031159	181.196483074234	126.6237363949484	79.0024682487522	277.6763820540125	87.12646292155256	117.4036568219772	323.8540412198013													229.3508173892644	280.7055123569694	298.3009938595837	257.8366218400938	259.2468147804229	344.7611943685311																						
507	10.12	-73.80823467392932	27.63481265526162	0.36117558754191	5.50220593574291	-98.60061007474638	6.671865547061016	-218.1576070755541	86.70884443792656	0.171694663475862	-244.2804602685326	-122.9628207095705	8.377170809420502	-81.72089041481176	36.37282920233731	24.19955839626258	-189.8706040225438	42.59017006822735	173.7834766081944	-237.3964888712396	-16.88109560680949	110.0024558880578	-150.1907201128559	-154.5318553591529	141.6301195785718	-140.8542398590612	62.37779925867536	108.5712142352178	-192.9920766424932	72.8488128032922	141.2279345619519	-192.9920766424932	72.8488128032922	141.2279345619519	-139.0409023484553	8.377912973267554	182.007476357787	128.287212518587	64.02914610067648	279.1411788212476	90.4619115757804	102.8955464829054	326.291689976826													238.4781212645154	261.4988126117181	301.2919718309358	266.1330907184608	238.7161507457122	347.6166422821638																						
508	10.14	-73.96628472362615	27.0930339209416	0.809881645039349	4.555916631384655	-99.63629801644939	6.952322625123704	-217.9384189244513	87.07167548079303	0.8820088319032922	-245.3689061453894	-122.427361258785	9.077300865986842	-81.78327754460524	35.87433380306464	24.66376331021176	-189.7557218677997	41.05207713250229	175.2560941723828	-238.5579812866389	-16.50613724868472	110.6858417976284	-154.4646853472118	-156.4778631384248	140.5436994898938	-140.2644639620961	60.59182091899331	110.3277496307097	-192.1793944402879	71.79726755871637	143.0982713110174	-192.1793944402879	71.79726755871637	143.0982713110174	-140.0452388518892	6.07922587936194	182.8692287962236	129.444787770167	48.66952531254594	280.5311887676406	93.32292737487398	87.95806379736841	328.6416934787645													247.0813925188634	241.6119166608781	304.3638668170761	273.8080089738104	217.4837292557654	350.5419857243379																						
